<svg width="24" height="24" viewBox="0 0 24 24" fill="none" xmlns="http://www.w3.org/2000/svg">
<path d="M19.5057 17.25H14.2501C14.0512 17.25 13.8604 17.329 13.7198 17.4697C13.5791 17.6103 13.5001 17.8011 13.5001 18V19.125C13.5001 20.0207 13.8559 20.8798 14.4893 21.5131C15.1227 22.1465 15.9817 22.5023 16.8774 22.5023C17.7732 22.5023 18.6322 22.1465 19.2656 21.5131C19.8989 20.8798 20.2548 20.0207 20.2548 19.125V18C20.2548 17.8012 20.1759 17.6106 20.0354 17.47C19.895 17.3294 19.7045 17.2502 19.5057 17.25ZM18.7557 19.125C18.7557 19.6223 18.5582 20.0992 18.2065 20.4508C17.8549 20.8025 17.378 21 16.8807 21C16.3834 21 15.9065 20.8025 15.5549 20.4508C15.2033 20.0992 15.0057 19.6223 15.0057 19.125V18.75H18.7557V19.125ZM9.75008 15H4.50008C4.30117 15 4.1104 15.079 3.96975 15.2197C3.8291 15.3603 3.75008 15.5511 3.75008 15.75V16.875C3.75008 17.7701 4.10566 18.6285 4.7386 19.2615C5.37153 19.8944 6.22998 20.25 7.12508 20.25C8.02019 20.25 8.87863 19.8944 9.51157 19.2615C10.1445 18.6285 10.5001 17.7701 10.5001 16.875V15.75C10.5001 15.5511 10.4211 15.3603 10.2804 15.2197C10.1398 15.079 9.94899 15 9.75008 15ZM9.00008 16.875C9.00008 17.3723 8.80254 17.8492 8.45091 18.2008C8.09928 18.5525 7.62236 18.75 7.12508 18.75C6.6278 18.75 6.15089 18.5525 5.79926 18.2008C5.44763 17.8492 5.25008 17.3723 5.25008 16.875V16.5H9.00008V16.875ZM7.12508 1.5C6.03383 1.5 4.97539 2.46656 4.14383 4.21875C2.83789 6.97312 2.40383 11.0625 4.17102 13.2187C4.24148 13.3048 4.33019 13.374 4.43072 13.4215C4.53125 13.469 4.64108 13.4936 4.75227 13.4934H9.49133C9.60252 13.4936 9.71235 13.469 9.81288 13.4215C9.91341 13.374 10.0021 13.3048 10.0726 13.2187C11.8398 11.0625 11.4057 6.97031 10.0998 4.21875C9.26727 2.46656 8.20977 1.5 7.12508 1.5ZM9.10789 12H5.13571C4.06696 10.3031 4.45977 7.05937 5.50039 4.86469C6.10696 3.58312 6.76602 3 7.12508 3C7.48414 3 8.13946 3.58312 8.74696 4.86469C9.78383 7.05937 10.1766 10.3031 9.10789 12ZM14.5088 15.75H19.2479C19.3591 15.7502 19.4689 15.7256 19.5694 15.6781C19.67 15.6306 19.7587 15.5613 19.8291 15.4753C21.5963 13.3191 21.1623 9.22687 19.8563 6.47531C19.0248 4.71656 17.9663 3.75 16.8751 3.75C15.7838 3.75 14.7291 4.71656 13.8966 6.46875C12.5907 9.22312 12.1566 13.3125 13.9238 15.4687C13.9943 15.5562 14.0833 15.6268 14.1845 15.6755C14.2858 15.7241 14.3965 15.7496 14.5088 15.75ZM15.2588 7.11469C15.8645 5.83312 16.5235 5.25 16.8751 5.25C17.2266 5.25 17.8895 5.83312 18.496 7.11469C19.5366 9.30937 19.9295 12.5522 18.8616 14.25H14.8923C13.8235 12.5531 14.2163 9.30937 15.257 7.11469H15.2588Z" fill="black"/>
</svg>
