<svg width="24" height="24" viewBox="0 0 24 24" fill="none" xmlns="http://www.w3.org/2000/svg">
<path d="M12 7.50001C11.11 7.50001 10.24 7.76393 9.49998 8.2584C8.75996 8.75287 8.18318 9.45567 7.84259 10.2779C7.50199 11.1002 7.41288 12.005 7.58651 12.8779C7.76014 13.7508 8.18873 14.5527 8.81806 15.182C9.4474 15.8113 10.2492 16.2399 11.1221 16.4135C11.9951 16.5872 12.8999 16.4981 13.7221 16.1575C14.5444 15.8169 15.2472 15.2401 15.7417 14.5001C16.2361 13.7601 16.5 12.89 16.5 12C16.4988 10.8069 16.0243 9.66305 15.1807 8.8194C14.337 7.97576 13.1931 7.50125 12 7.50001ZM12 15C11.4067 15 10.8267 14.8241 10.3333 14.4944C9.83999 14.1648 9.45547 13.6962 9.2284 13.1481C9.00134 12.5999 8.94193 11.9967 9.05769 11.4147C9.17344 10.8328 9.45917 10.2983 9.87872 9.87869C10.2983 9.45913 10.8328 9.17341 11.4148 9.05766C11.9967 8.9419 12.5999 9.00131 13.1481 9.22837C13.6963 9.45544 14.1648 9.83996 14.4945 10.3333C14.8241 10.8267 15 11.4067 15 12C15 12.7957 14.684 13.5587 14.1214 14.1213C13.5588 14.6839 12.7957 15 12 15ZM20.25 12.2025C20.2538 12.0675 20.2538 11.9325 20.25 11.7975L21.6488 10.05C21.7221 9.95826 21.7729 9.85057 21.797 9.7356C21.8211 9.62064 21.8179 9.50162 21.7875 9.38814C21.5582 8.5262 21.2152 7.69862 20.7675 6.9272C20.7089 6.82625 20.6276 6.74037 20.5299 6.67641C20.4322 6.61245 20.321 6.57216 20.205 6.55876L17.9813 6.31126C17.8888 6.21376 17.795 6.12001 17.7 6.03001L17.4375 3.80064C17.424 3.68459 17.3836 3.57329 17.3195 3.47563C17.2554 3.37797 17.1693 3.29665 17.0682 3.23814C16.2965 2.79128 15.4689 2.44861 14.6072 2.21907C14.4937 2.18888 14.3746 2.1858 14.2597 2.21006C14.1447 2.23432 14.037 2.28526 13.9454 2.35876L12.2025 3.75001C12.0675 3.75001 11.9325 3.75001 11.7975 3.75001L10.05 2.35407C9.95829 2.28073 9.8506 2.22997 9.73563 2.20587C9.62067 2.18177 9.50165 2.18501 9.38817 2.21532C8.52637 2.44504 7.69884 2.78803 6.92723 3.23532C6.82628 3.29394 6.7404 3.37532 6.67644 3.47297C6.61248 3.57062 6.57219 3.68186 6.55879 3.79782L6.31129 6.02532C6.21379 6.11845 6.12004 6.2122 6.03004 6.30657L3.80067 6.56251C3.68462 6.57601 3.57333 6.61644 3.47567 6.68057C3.37801 6.7447 3.29668 6.83076 3.23817 6.93189C2.79131 7.7036 2.44864 8.53111 2.21911 9.39283C2.18891 9.50638 2.18583 9.62544 2.21009 9.74041C2.23435 9.85537 2.28529 9.96303 2.35879 10.0547L3.75004 11.7975C3.75004 11.9325 3.75004 12.0675 3.75004 12.2025L2.35411 13.95C2.28076 14.0418 2.23 14.1495 2.2059 14.2644C2.1818 14.3794 2.18504 14.4984 2.21536 14.6119C2.44466 15.4738 2.78767 16.3014 3.23536 17.0728C3.29397 17.1738 3.37535 17.2597 3.473 17.3236C3.57065 17.3876 3.68189 17.4279 3.79786 17.4413L6.02161 17.6888C6.11473 17.7863 6.20848 17.88 6.30286 17.97L6.56254 20.1994C6.57604 20.3154 6.61647 20.4267 6.6806 20.5244C6.74473 20.6221 6.83079 20.7034 6.93192 20.7619C7.70363 21.2088 8.53114 21.5514 9.39286 21.781C9.50641 21.8111 9.62547 21.8142 9.74044 21.79C9.8554 21.7657 9.96306 21.7148 10.0547 21.6413L11.7975 20.25C11.9325 20.2538 12.0675 20.2538 12.2025 20.25L13.95 21.6488C14.0418 21.7221 14.1495 21.7729 14.2645 21.797C14.3794 21.8211 14.4984 21.8178 14.6119 21.7875C15.4739 21.5582 16.3014 21.2152 17.0729 20.7675C17.1738 20.7089 17.2597 20.6275 17.3236 20.5299C17.3876 20.4322 17.4279 20.321 17.4413 20.205L17.6888 17.9813C17.7863 17.8888 17.88 17.795 17.97 17.7L20.1994 17.4375C20.3155 17.424 20.4268 17.3836 20.5244 17.3195C20.6221 17.2553 20.7034 17.1693 20.7619 17.0681C21.2088 16.2964 21.5514 15.4689 21.781 14.6072C21.8112 14.4936 21.8143 14.3746 21.79 14.2596C21.7657 14.1447 21.7148 14.037 21.6413 13.9453L20.25 12.2025ZM18.7407 11.5931C18.7566 11.8642 18.7566 12.1359 18.7407 12.4069C18.7295 12.5924 18.7876 12.7755 18.9038 12.9206L20.2341 14.5828C20.0815 15.068 19.886 15.5386 19.65 15.9891L17.5313 16.2291C17.3468 16.2496 17.1764 16.3377 17.0532 16.4766C16.8727 16.6795 16.6805 16.8717 16.4775 17.0522C16.3387 17.1755 16.2505 17.3458 16.23 17.5303L15.9947 19.6472C15.5443 19.8833 15.0736 20.0787 14.5885 20.2313L12.9254 18.901C12.7923 18.7946 12.627 18.7368 12.4566 18.7369H12.4116C12.1406 18.7528 11.8689 18.7528 11.5979 18.7369C11.4123 18.7257 11.2292 18.7839 11.0841 18.9L9.41723 20.2313C8.93211 20.0786 8.4615 19.8832 8.01098 19.6472L7.77098 17.5313C7.7505 17.3467 7.66231 17.1764 7.52348 17.0531C7.32052 16.8727 7.12832 16.6805 6.94786 16.4775C6.82461 16.3387 6.65424 16.2505 6.46973 16.23L4.35286 15.9938C4.11679 15.5433 3.92132 15.0727 3.76879 14.5875L5.09911 12.9244C5.21527 12.7793 5.2734 12.5962 5.26223 12.4106C5.24629 12.1396 5.24629 11.8679 5.26223 11.5969C5.2734 11.4113 5.21527 11.2283 5.09911 11.0831L3.76879 9.4172C3.92144 8.93207 4.1169 8.46147 4.35286 8.01095L6.46879 7.77095C6.65331 7.75047 6.82367 7.66228 6.94692 7.52345C7.12738 7.32049 7.31958 7.12829 7.52254 6.94783C7.66193 6.82449 7.75048 6.65374 7.77098 6.46876L8.00629 4.35282C8.45676 4.11675 8.92738 3.92129 9.41254 3.76876L11.0757 5.09907C11.2208 5.21524 11.4039 5.27337 11.5894 5.2622C11.8604 5.24626 12.1322 5.24626 12.4032 5.2622C12.5887 5.27337 12.7718 5.21524 12.9169 5.09907L14.5829 3.76876C15.068 3.92141 15.5386 4.11687 15.9891 4.35282L16.2291 6.46876C16.2496 6.65328 16.3378 6.82364 16.4766 6.94689C16.6796 7.12735 16.8718 7.31955 17.0522 7.52251C17.1755 7.66134 17.3458 7.74953 17.5304 7.77001L19.6472 8.00533C19.8833 8.4558 20.0788 8.92641 20.2313 9.41158L18.901 11.0747C18.7837 11.221 18.7255 11.406 18.7379 11.5931H18.7407Z" fill="black"/>
</svg>
